{"accessors":[{"bufferView":0,"componentType":5126,"count":102,"max":[11.0,1.5,7.5],"min":[-11.0,-1.5,-7.5],"normalized":false,"type":"VEC3"},{"bufferView":1,"componentType":5126,"count":102,"max":[0.0,0.0,1.0,1.0],"min":[-1.0,-1.0,-1.0,-1.0],"normalized":false,"type":"VEC4"},{"bufferView":2,"componentType":5126,"count":102,"max":[1.0,1.0,1.0],"min":[-1.0,-1.0,-1.0],"normalized":false,"type":"VEC3"},{"bufferView":3,"componentType":5126,"count":102,"max":[1.0,1.0],"min":[0.0,0.0],"normalized":false,"type":"VEC2"},{"bufferView":4,"componentType":5121,"count":102,"max":[101],"min":[0],"normalized":false,"type":"SCALAR"},{"bufferView":5,"componentType":5126,"count":36,"max":[7.0,1.5,5.0],"min":[2.0,-1.5,-5.0],"normalized":false,"type":"VEC3"},{"bufferView":6,"componentType":5126,"count":36,"max":[0.0,0.0,7.630093023180962e-05,1.0],"min":[-1.0,-1.0,-1.0,-1.0],"normalized":false,"type":"VEC4"},{"bufferView":7,"componentType":5126,"count":36,"max":[1.0,1.0,1.0],"min":[-1.0,-1.0,-1.0],"normalized":false,"type":"VEC3"},{"bufferView":8,"componentType":5126,"count":36,"max":[1.0,1.0],"min":[0.0,0.0],"normalized":false,"type":"VEC2"},{"bufferView":9,"componentType":5121,"count":36,"max":[35],"min":[0],"normalized":false,"type":"SCALAR"},{"bufferView":10,"componentType":5126,"count":96,"max":[13.5,1.5,10.0],"min":[-13.5,-1.5,-10.0],"normalized":false,"type":"VEC3"},{"bufferView":11,"componentType":5126,"count":96,"max":[0.0,0.0,7.630093023180962e-05,1.0],"min":[-1.0,-1.0,-1.0,-1.0],"normalized":false,"type":"VEC4"},{"bufferView":12,"componentType":5126,"count":96,"max":[1.0,1.0,1.0],"min":[-1.0,-1.0,-1.0],"normalized":false,"type":"VEC3"},{"bufferView":13,"componentType":5126,"count":96,"max":[1.0,1.0],"min":[0.0,0.0],"normalized":false,"type":"VEC2"},{"bufferView":14,"componentType":5121,"count":96,"max":[95],"min":[0],"normalized":false,"type":"SCALAR"},{"bufferView":15,"componentType":5126,"count":36,"max":[4.5,1.5,-1.5],"min":[-4.5,-1.5,-15.5],"normalized":false,"type":"VEC3"},{"bufferView":16,"componentType":5126,"count":36,"max":[0.0,0.0,7.630093023180962e-05,1.0],"min":[-1.0,-1.0,-1.0,-1.0],"normalized":false,"type":"VEC4"},{"bufferView":17,"componentType":5126,"count":36,"max":[1.0,1.0,1.0],"min":[-1.0,-1.0,-1.0],"normalized":false,"type":"VEC3"},{"bufferView":18,"componentType":5126,"count":36,"max":[1.0,1.0],"min":[0.0,0.0],"normalized":false,"type":"VEC2"},{"bufferView":19,"componentType":5126,"count":540,"max":[28.0,4.5,6.0],"min":[-36.0,-1.5,-32.0],"normalized":false,"type":"VEC3"},{"bufferView":20,"componentType":5126,"count":540,"max":[0.0,0.0,1.0,1.0],"min":[-1.0,-1.0,-1.0,1.0],"normalized":false,"type":"VEC4"},{"bufferView":21,"componentType":5126,"count":540,"max":[1.0,1.0,1.0],"min":[-1.0,-1.0,-1.0],"normalized":false,"type":"VEC3"},{"bufferView":22,"componentType":5126,"count":540,"max":[1.0,1.0],"min":[0.0,0.0],"normalized":false,"type":"VEC2"},{"bufferView":23,"componentType":5123,"count":540,"max":[539],"min":[0],"normalized":false,"type":"SCALAR"}],"asset":{"generator":"Godot Engine v4.6.3.stable.official@7d41c59c457bd5a245092b4e7eb2d833e3b3f8c3","version":"2.0"},"bufferViews":[{"buffer":0,"byteLength":1224,"byteStride":12,"target":34962},{"buffer":0,"byteLength":1632,"byteOffset":1224,"byteStride":16,"target":34962},{"buffer":0,"byteLength":1224,"byteOffset":2856,"byteStride":12,"target":34962},{"buffer":0,"byteLength":816,"byteOffset":4080,"byteStride":8,"target":34962},{"buffer":0,"byteLength":102,"byteOffset":4896,"target":34963},{"buffer":0,"byteLength":432,"byteOffset":5000,"byteStride":12,"target":34962},{"buffer":0,"byteLength":576,"byteOffset":5432,"byteStride":16,"target":34962},{"buffer":0,"byteLength":432,"byteOffset":6008,"byteStride":12,"target":34962},{"buffer":0,"byteLength":288,"byteOffset":6440,"byteStride":8,"target":34962},{"buffer":0,"byteLength":36,"byteOffset":6728,"target":34963},{"buffer":0,"byteLength":1152,"byteOffset":6764,"byteStride":12,"target":34962},{"buffer":0,"byteLength":1536,"byteOffset":7916,"byteStride":16,"target":34962},{"buffer":0,"byteLength":1152,"byteOffset":9452,"byteStride":12,"target":34962},{"buffer":0,"byteLength":768,"byteOffset":10604,"byteStride":8,"target":34962},{"buffer":0,"byteLength":96,"byteOffset":11372,"target":34963},{"buffer":0,"byteLength":432,"byteOffset":11468,"byteStride":12,"target":34962},{"buffer":0,"byteLength":576,"byteOffset":11900,"byteStride":16,"target":34962},{"buffer":0,"byteLength":432,"byteOffset":12476,"byteStride":12,"target":34962},{"buffer":0,"byteLength":288,"byteOffset":12908,"byteStride":8,"target":34962},{"buffer":0,"byteLength":6480,"byteOffset":13196,"byteStride":12,"target":34962},{"buffer":0,"byteLength":8640,"byteOffset":19676,"byteStride":16,"target":34962},{"buffer":0,"byteLength":6480,"byteOffset":28316,"byteStride":12,"target":34962},{"buffer":0,"byteLength":4320,"byteOffset":34796,"byteStride":8,"target":34962},{"buffer":0,"byteLength":1080,"byteOffset":39116,"target":34963}],"buffers":[{"byteLength":40196,"uri":"main_level0.bin"}],"extensions":{"KHR_lights_punctual":{"lights":[{"type":"directional"}]}},"extensionsRequired":["KHR_node_visibility"],"extensionsUsed":["GODOT_single_root","KHR_lights_punctual","KHR_node_visibility"],"images":[{"uri":"textures%2F.png"}],"materials":[{"name":"GrayMaterial","pbrMetallicRoughness":{"baseColorFactor":[1.0,1.0,1.0,1.0],"baseColorTexture":{"index":0},"metallicFactor":0.0,"roughnessFactor":1.0}}],"meshes":[{"name":"Overhang2","primitives":[{"attributes":{"NORMAL":2,"POSITION":0,"TANGENT":1,"TEXCOORD_0":3},"indices":4,"material":0,"mode":4}]},{"name":"Overhang32","primitives":[{"attributes":{"NORMAL":7,"POSITION":5,"TANGENT":6,"TEXCOORD_0":8},"indices":9,"material":0,"mode":4}]},{"name":"Overhang52","primitives":[{"attributes":{"NORMAL":12,"POSITION":10,"TANGENT":11,"TEXCOORD_0":13},"indices":14,"material":0,"mode":4}]},{"name":"Overhang72","primitives":[{"attributes":{"NORMAL":17,"POSITION":15,"TANGENT":16,"TEXCOORD_0":18},"indices":9,"material":0,"mode":4}]},{"name":"Room2","primitives":[{"attributes":{"NORMAL":21,"POSITION":19,"TANGENT":20,"TEXCOORD_0":22},"indices":23,"material":0,"mode":4}]}],"nodes":[{"children":[1,2,3,6,8,10,12,23],"name":"MainLevel"},{"name":"WorldEnvironment"},{"extensions":{"KHR_lights_punctual":{"light":0}},"name":"DirectionalLight3D","rotation":[-0.1294095516204834,0.836516261100769,0.4829629361629486,0.2241438925266266]},{"children":[4,5],"mesh":0,"name":"Overhang2","translation":[-20.0,1.5,11.5]},{"name":"Overhang22","translation":[4.0,0.0,4.0]},{"name":"Corridor6","rotation":[0.0,0.7071067690849304,0.0,0.7071067690849304],"translation":[-5.0,-0.25,-7.5]},{"children":[7],"mesh":1,"name":"Overhang32","translation":[-25.0,1.5,-5.0]},{"name":"Overhang4","translation":[-2.5,0.0,0.0]},{"children":[9],"mesh":2,"name":"Overhang52","translation":[1.5,1.5,-9.0]},{"name":"Overhang6"},{"children":[11],"mesh":3,"name":"Overhang72","translation":[27.5,1.5,-0.5]},{"name":"Overhang8","translation":[0.0,0.0,7.0]},{"children":[13],"mesh":4,"name":"Room2","translation":[4.0,1.5,13.0]},{"children":[14,15,16,17,18,19,20,21,22],"name":"CSGCombiner3D"},{"name":"Room22","translation":[-24.0,1.5,-1.5]},{"name":"Corridor","translation":[-9.5,-0.25,1.0]},{"name":"Corridor2","rotation":[0.0,0.7071067690849304,0.0,0.7071067690849304],"translation":[-29.0,-0.25,-10.0]},{"name":"Corridor3","translation":[-19.5,2.75,-17.0]},{"name":"Corridor4","rotation":[0.0,0.7071067690849304,0.0,0.7071067690849304],"translation":[-11.5,2.75,-9.0]},{"name":"Corridor5","translation":[14.5,2.75,-23.0]},{"name":"Room3","translation":[-29.0,1.5,-18.0]},{"name":"Room4","translation":[-2.5,1.5,-22.0]},{"name":"Room5","translation":[23.5,1.5,-13.5]},{"extensions":{"KHR_node_visibility":{"visible":false}},"name":"Sprite3D","scale":[2.4000000953674316,2.4000000953674316,2.4000000953674316],"translation":[0.0,0.10000000149011612,0.0]}],"samplers":[{"magFilter":9729,"minFilter":9987,"wrapS":10497,"wrapT":10497}],"scene":0,"scenes":[{"nodes":[0]}],"textures":[{"sampler":0,"source":0}]}